<svg width="512" height="512" viewBox="0 0 512 512" fill="none" xmlns="http://www.w3.org/2000/svg">
<path d="M256 512C397.385 512 512 397.385 512 256C512 114.615 397.385 0 256 0C114.615 0 0 114.615 0 256C0 397.385 114.615 512 256 512Z" fill="#F0F0F0"/>
<path d="M339.147 189.216H305.653C305.93 192.897 306.087 196.611 306.087 200.346C306.087 225.11 299.897 249.113 289.106 266.199C285.777 271.469 280.183 278.911 272.695 283.931V189.215H239.304V283.931C231.817 278.911 226.222 271.47 222.893 266.199C212.101 249.113 205.912 225.11 205.912 200.346C205.912 196.611 206.07 192.896 206.346 189.216H172.852C172.637 192.879 172.52 196.589 172.52 200.346C172.52 269.002 209.188 322.781 255.998 322.781C302.808 322.781 339.476 269.002 339.476 200.346C339.478 196.589 339.361 192.879 339.147 189.216Z" fill="#D80027"/>
<path d="M105.739 122.435H139.13V144.696H172.521V122.435H205.912V144.696H239.303V122.435H272.694V144.696H306.085V122.435H339.476V144.696H372.867V122.435H406.258V144.696H486.595C445.19 59.065 357.493 0 256 0C154.507 0 66.8103 59.065 25.4023 144.696H105.739V122.435Z" fill="#6DA544"/>
<path d="M406.261 367.305V389.566H372.87V367.305H339.479V389.566H306.088V367.305H272.697V389.566H239.306V367.305H205.915V389.566H172.524V367.305H139.13V389.566H105.739V367.305H25.4023C66.8103 452.936 154.506 512.001 256 512.001C357.494 512.001 445.19 452.936 486.598 367.305H406.261Z" fill="#D80027"/>
</svg>
