<svg width="208" height="69" viewBox="0 0 208 69" fill="none" xmlns="http://www.w3.org/2000/svg">
<g clip-path="url(#clip0_6886_5508)">
<path d="M203.64 64.9648H3.54266C1.58666 64.9648 0 66.5513 0 68.5081H207.18C207.18 66.5513 205.596 64.9648 203.64 64.9648Z" fill="white"/>
<path d="M140.012 54.9683C140.012 60.4886 144.388 64.9651 149.788 64.9651C155.189 64.9651 159.565 60.4886 159.565 54.9683C159.565 49.4495 155.189 44.9746 149.788 44.9746C144.388 44.9746 140.012 49.4495 140.012 54.9683Z" fill="white"/>
<path d="M149.787 60.4587C146.826 60.4587 144.418 57.9952 144.418 54.9692C144.418 51.9405 146.826 49.4785 149.787 49.4785C152.75 49.4785 155.157 51.9405 155.157 54.9692C155.157 57.9952 152.75 60.4587 149.787 60.4587Z" fill="#6366f1"/>
<path d="M113.652 54.9683C113.652 60.4886 118.03 64.9651 123.428 64.9651C128.83 64.9651 133.207 60.4886 133.207 54.9683C133.207 49.4495 128.83 44.9746 123.428 44.9746C118.03 44.9746 113.652 49.4495 113.652 54.9683Z" fill="white"/>
<path d="M123.43 60.4587C120.47 60.4587 118.062 57.9952 118.062 54.9692C118.062 51.9405 120.47 49.4785 123.43 49.4785C126.393 49.4785 128.799 51.9405 128.799 54.9692C128.799 57.9952 126.393 60.4587 123.43 60.4587Z" fill="#6366f1"/>
<path d="M19.3672 54.9683C19.3672 60.4886 23.7459 64.9651 29.1485 64.9651C34.5459 64.9651 38.9219 60.4886 38.9219 54.9683C38.9219 49.4495 34.5459 44.9746 29.1485 44.9746C23.7459 44.9746 19.3672 49.4495 19.3672 54.9683Z" fill="white"/>
<path d="M29.1468 60.4587C26.1814 60.4587 23.7734 57.9952 23.7734 54.9692C23.7734 51.9405 26.1814 49.4785 29.1468 49.4785C32.1041 49.4785 34.5134 51.9405 34.5134 54.9692C34.5134 57.9952 32.1041 60.4587 29.1468 60.4587Z" fill="#6366f1"/>
<path d="M197.961 -0.000976562H17.864C0.586664 -0.000976562 0 28.8835 0 40.0079C0 51.3464 2.19867 54.9668 2.19867 54.9668H17.8227C17.8227 48.5849 22.9013 43.3939 29.1493 43.3939C35.3893 43.3939 40.4693 48.5849 40.4693 54.9668H112.117C112.117 48.6095 117.192 43.434 123.432 43.434C129.669 43.434 134.744 48.6095 134.744 54.9668H138.465C138.468 48.586 143.547 43.3939 149.789 43.3939C156.033 43.3939 161.112 48.586 161.112 54.9668H177.209C188.612 54.9668 207.18 50.6616 207.18 39.4105V9.96516C207.18 0.985953 202.748 -0.000976562 197.961 -0.000976562Z" fill="white"/>
<path d="M106.933 21.1619V3.7207H79.2305V21.1619H106.933Z" fill="#6366f1"/>
<path d="M46.2514 21.1619V3.7207H18.582V21.1619H46.2514Z" fill="#6366f1"/>
<path d="M137.274 21.1619V3.7207H109.59V21.1619H137.274Z" fill="#6366f1"/>
<path d="M76.5756 21.1619V3.7207H48.9062V21.1619H76.5756Z" fill="#6366f1"/>
<path d="M167.611 21.1619V3.7207H139.926V21.1619H167.611Z" fill="#6366f1"/>
<path d="M197.95 15.7467V9.72337C197.95 3.7207 196.055 3.7207 192.614 3.7207H170.266V21.1619L197.95 15.7467Z" fill="#6366f1"/>
<path d="M8.28369 49.135V46.8209C8.28369 46.2141 7.7957 45.7236 7.1877 45.7236H3.95703C4.1197 47.6282 4.35436 49.111 4.58903 50.2308H7.1877C7.7957 50.2308 8.28369 49.7428 8.28369 49.135Z" fill="#6366f1"/>
<path d="M202.152 31.3857C201.548 31.3857 201.055 31.8779 201.055 32.482V38.3153C201.055 38.9205 201.548 39.4143 202.152 39.4143H203.449V31.3857H202.152Z" fill="#6366f1"/>
<path d="M3.73047 39.0465H8.66247C15.9278 39.0465 15.9278 30.5231 15.9278 30.5231V3.91992C8.00113 5.52152 3.81847 17.3174 3.73047 39.0465Z" fill="#6366f1"/>
</g>
<defs>
<clipPath id="clip0_6886_5508">
<rect width="208" height="69" fill="white"/>
</clipPath>
</defs>
</svg>
