<svg width="178" height="69" viewBox="0 0 178 69" fill="none" xmlns="http://www.w3.org/2000/svg">
<path d="M108.648 54.9681C108.648 60.4881 113.026 64.9668 118.426 64.9668C123.827 64.9668 128.204 60.4881 128.204 54.9681C128.204 49.4508 123.827 44.9735 118.426 44.9735C113.026 44.9735 108.648 49.4508 108.648 54.9681Z" fill="#6366f1"/>
<path d="M19.3672 54.9681C19.3672 60.4881 23.7459 64.9668 29.1485 64.9668C34.5459 64.9668 38.9219 60.4881 38.9219 54.9681C38.9219 49.4508 34.5459 44.9735 29.1485 44.9735C23.7459 44.9735 19.3672 49.4508 19.3672 54.9681Z" fill="#6366f1"/>
<path d="M167.94 0.000745831H17.864C0.586664 0.000745831 0 28.8848 0 40.0101C0 51.3501 2.19867 54.9688 2.19867 54.9688H17.8227C17.8227 48.5874 22.9013 43.3981 29.1493 43.3981C35.3893 43.3981 40.4693 48.5874 40.4693 54.9688H107.112C107.112 48.6114 112.188 43.4381 118.428 43.4381C124.665 43.4381 129.74 48.6114 129.74 54.9688H147.188C158.591 54.9688 177.16 50.6648 177.16 39.4128V9.96741C177.16 0.987413 172.727 0.000745831 167.94 0.000745831Z" fill="#6366f1"/>
<path d="M164.391 64.9665H3.54266C1.58666 64.9665 0 66.5505 0 68.5078H167.932C167.932 66.5505 166.345 64.9665 164.391 64.9665Z" fill="#6366f1"/>
<path d="M118.423 60.459C115.461 60.459 113.055 57.995 113.055 54.9696C113.055 51.9403 115.461 49.4777 118.423 49.4777C121.385 49.4777 123.792 51.9403 123.792 54.9696C123.792 57.995 121.385 60.459 118.423 60.459Z" fill="white"/>
<path d="M29.1468 60.459C26.1814 60.459 23.7734 57.995 23.7734 54.9696C23.7734 51.9403 26.1814 49.4777 29.1468 49.4777C32.1041 49.4777 34.5134 51.9403 34.5134 54.9696C34.5134 57.995 32.1041 60.459 29.1468 60.459Z" fill="white"/>
<path d="M106.933 21.1621V3.72077H79.2305V21.1621H106.933Z" fill="white"/>
<path d="M46.2514 21.1621V3.72077H18.582V21.1621H46.2514Z" fill="white"/>
<path d="M137.274 21.1621V3.72077H109.59V21.1621H137.274Z" fill="white"/>
<path d="M76.5756 21.1621V3.72077H48.9062V21.1621H76.5756Z" fill="white"/>
<path d="M167.61 15.7461V9.72477C167.61 3.72077 165.715 3.72077 162.274 3.72077H139.926V21.1621L167.61 15.7461Z" fill="white"/>
<path d="M8.28369 49.1344V46.821C8.28369 46.2144 7.7957 45.7237 7.1877 45.7237H3.95703C4.1197 47.629 4.35436 49.1117 4.58903 50.2344H7.1877C7.7957 50.2344 8.28369 49.7437 8.28369 49.1344Z" fill="white"/>
<path d="M172.133 31.3861C171.529 31.3861 171.035 31.878 171.035 32.4847V38.3154C171.035 38.9207 171.529 39.4141 172.133 39.4141H173.43V31.3861H172.133Z" fill="white"/>
<path d="M3.73047 39.0488H8.66247C15.9278 39.0488 15.9278 30.5235 15.9278 30.5235V3.92082C8.00113 5.52349 3.81847 17.3182 3.73047 39.0488Z" fill="white"/>
</svg>
